<svg xmlns="http://www.w3.org/2000/svg" width="186.666" height="147.3955" viewBox="0 0 186.666 147.3955"><defs><style>.cls-1,.cls-2{fill-rule:evenodd;}.cls-2{fill:#0086cb;}</style></defs><g id="Layer_2" data-name="Layer 2"><g id="_1:_Atoms_Logos_Main_logo_Colour" data-name=" 1: Atoms Logos Main logo Colour"><g id="Group_24" data-name="Group 24"><g id="Group_23" data-name="Group 23"><path id="Path_1" data-name="Path 1" class="cls-1" d="M24.194,134.415a4.2632,4.2632,0,0,0-1.9.442,8.0708,8.0708,0,0,0-1.82,1.269v-1.362H18.398v12.283h2.076v-9.179a8.1421,8.1421,0,0,1,1.6-1.07,3.4993,3.4993,0,0,1,1.584-.414,2.7773,2.7773,0,0,1,1.229.225,1.6257,1.6257,0,0,1,.7.688,3.4063,3.4063,0,0,1,.312,1.172,14.1145,14.1145,0,0,1,.082,1.579v7h2.073v-7.982a5.18,5.18,0,0,0-1.022-3.456,3.5259,3.5259,0,0,0-2.835-1.2m14.911.955a4.11,4.11,0,0,0-1.56-.716,9.7378,9.7378,0,0,0-2.133-.2,11.4935,11.4935,0,0,0-2.111.2q-1.067.2-1.638.364v2.113h.12a11.21,11.21,0,0,1,1.93-.621,7.87,7.87,0,0,1,1.678-.217,8.1782,8.1782,0,0,1,1.173.084,2.42,2.42,0,0,1,.966.335,1.6372,1.6372,0,0,1,.614.689,2.6943,2.6943,0,0,1,.218,1.175v.4q-1.623.089-3.027.269a8.4349,8.4349,0,0,0-2.437.655,3.6786,3.6786,0,0,0-1.7,1.424,4.1353,4.1353,0,0,0-.538,2.172,4.2157,4.2157,0,0,0,.3,1.567,3.7667,3.7667,0,0,0,.79,1.246,3.6547,3.6547,0,0,0,1.2.8,3.7071,3.7071,0,0,0,1.439.285,5.2411,5.2411,0,0,0,1.431-.153,6.3916,6.3916,0,0,0,1.059-.439,4.9314,4.9314,0,0,0,.817-.535c.281-.222.507-.4.674-.521v1.307h2.075v-8.412a5.1269,5.1269,0,0,0-.332-1.956,3.05,3.05,0,0,0-1-1.311m-.743,8.65a7.6211,7.6211,0,0,1-1.48,1.033,3.6768,3.6768,0,0,1-1.766.423,2.5,2.5,0,0,1-1.734-.539,2.04,2.04,0,0,1-.593-1.592,1.934,1.934,0,0,1,.538-1.454,3.2994,3.2994,0,0,1,1.362-.775,10.07,10.07,0,0,1,1.815-.323c.75-.076,1.369-.139,1.859-.183Zm30-11.323h2.348v-2.144H68.373Zm13.359,2.672a4.126,4.126,0,0,0-1.562-.7161,9.7377,9.7377,0,0,0-2.133-.2,11.5021,11.5021,0,0,0-2.111.2q-1.067.2-1.638.364v2.11h.119a11.2741,11.2741,0,0,1,1.932-.621,7.868,7.868,0,0,1,1.677-.217,8.191,8.191,0,0,1,1.174.084,2.3984,2.3984,0,0,1,.964.335,1.6417,1.6417,0,0,1,.614.689,2.67,2.67,0,0,1,.22,1.175v.4q-1.6239.089-3.03.269a8.4293,8.4293,0,0,0-2.435.655,3.68,3.68,0,0,0-1.7,1.424,4.4889,4.4889,0,0,0-.241,3.739,3.6382,3.6382,0,0,0,3.423,2.335,5.2483,5.2483,0,0,0,1.432-.153,6.3522,6.3522,0,0,0,1.058-.439,4.81,4.81,0,0,0,.818-.535c.281-.222.507-.4.675-.521v1.307h2.073v-8.416a5.1419,5.1419,0,0,0-.33-1.956,3.0484,3.0484,0,0,0-1-1.311m-.743,8.65a7.5878,7.5878,0,0,1-1.483,1.033,3.6669,3.6669,0,0,1-1.765.423,2.5,2.5,0,0,1-1.734-.539,2.0391,2.0391,0,0,1-.592-1.592,1.9331,1.9331,0,0,1,.537-1.454,3.2991,3.2991,0,0,1,1.361-.775,10.1263,10.1263,0,0,1,1.816-.323c.75-.076,1.371-.139,1.861-.183ZM.463,147.0419H2.647v-7.888H9.938V137.216H2.636v-4.614h7.607v-1.938H.452Zm68.046,0h2.065V134.759H68.501ZM12.624,132.697h2.35v-2.144h-2.35Zm37.089,1.717a4.2632,4.2632,0,0,0-1.9.442,7.998,7.998,0,0,0-1.821,1.27v-1.362H43.919v12.283h2.073v-9.179a8.16,8.16,0,0,1,1.595-1.07,3.4983,3.4983,0,0,1,1.585-.414,2.7759,2.7759,0,0,1,1.229.225,1.6257,1.6257,0,0,1,.7.688,3.4085,3.4085,0,0,1,.312,1.172,14.7134,14.7134,0,0,1,.081,1.579v7h2.08v-7.982a5.18,5.18,0,0,0-1.022-3.456,3.527,3.527,0,0,0-2.835-1.2m12.384.056a6.2134,6.2134,0,0,0-2.328.434,4.7886,4.7886,0,0,0-1.81,1.239,6.0389,6.0389,0,0,0-1.165,1.987,8.0821,8.0821,0,0,0-.435,2.795,8.62,8.62,0,0,0,.418,2.831,5.4091,5.4091,0,0,0,1.178,2,4.7394,4.7394,0,0,0,1.815,1.174,6.6394,6.6394,0,0,0,2.322.392,5.7516,5.7516,0,0,0,1.078-.084q.417-.081.947-.235a5.75,5.75,0,0,0,.836-.3q.46-.2.77-.347v-2.315h-.121a5.9715,5.9715,0,0,1-1.623,1.068,4.5994,4.5994,0,0,1-1.929.4149,3.1308,3.1308,0,0,1-2.621-1.213,6.539,6.539,0,0,1,.033-6.819,3.16,3.16,0,0,1,2.587-1.213,4.1911,4.1911,0,0,1,1.124.163,5.48,5.48,0,0,1,1.014.386,6.9928,6.9928,0,0,1,.846.493q.3469.243.568.427h.121v-2.322a10.3833,10.3833,0,0,0-1.678-.659,6.6646,6.6646,0,0,0-1.953-.287M12.762,147.043h2.072V134.759H12.762ZM148.53,132.698h2.344v-2.144h-2.348Zm10.8,1.773a6.204,6.204,0,0,0-2.327.434,4.7924,4.7924,0,0,0-1.81,1.239,6.01,6.01,0,0,0-1.162,1.982,8.084,8.084,0,0,0-.434,2.795,8.6822,8.6822,0,0,0,.418,2.831,5.4005,5.4005,0,0,0,1.177,2,4.7407,4.7407,0,0,0,1.815,1.181,6.6421,6.6421,0,0,0,2.322.392,5.7622,5.7622,0,0,0,1.079-.084c.279-.054.593-.1321.947-.235a5.7152,5.7152,0,0,0,.836-.3c.307-.136.564-.251.769-.347v-2.315h-.121a5.9649,5.9649,0,0,1-1.622,1.068,4.599,4.599,0,0,1-1.93.415,3.1288,3.1288,0,0,1-2.62-1.213,6.5392,6.5392,0,0,1,.033-6.819,3.1592,3.1592,0,0,1,2.587-1.213,4.1939,4.1939,0,0,1,1.125.163,5.5131,5.5131,0,0,1,1.016.386,7.0022,7.0022,0,0,1,.844.493q.3471.243.568.427h.121v-2.322a10.307,10.307,0,0,0-1.677-.659,6.667,6.667,0,0,0-1.954-.287m-10.661,12.572h2.072V134.759h-2.072Zm25.421-11.266a4.0147,4.0147,0,0,0-1.539-1.031,5.7366,5.7366,0,0,0-2.025-.332,5.2372,5.2372,0,0,0-4.114,1.776,6.9411,6.9411,0,0,0-1.571,4.773,6.44,6.44,0,0,0,1.621,4.7,6.1,6.1,0,0,0,4.559,1.653,7.2533,7.2533,0,0,0,1.236-.087c.328-.061.692-.143,1.1-.254.284-.081.608-.193.9661-.335l.9-.359v-2.25h-.121a5.6326,5.6326,0,0,1-.638.447,8.8265,8.8265,0,0,1-.947.489,6.3775,6.3775,0,0,1-1.181.394,5.7391,5.7391,0,0,1-1.336.154,3.9154,3.9154,0,0,1-2.98-1.133,4.5741,4.5741,0,0,1-1.076-3.276h8.512v-1.121a7.645,7.645,0,0,0-.352-2.49,4.7281,4.7281,0,0,0-1.011-1.72m-7.148,3.749a4.567,4.567,0,0,1,.306-1.368,3.4642,3.4642,0,0,1,.7-1.072,3.3686,3.3686,0,0,1,1.05-.719,4.1251,4.1251,0,0,1,2.8-.007,2.322,2.322,0,0,1,.93.7,3.0053,3.0053,0,0,1,.506,1.022,5.6876,5.6876,0,0,1,.2,1.44Zm19.038,1.82a3.875,3.875,0,0,0-2.05-1.135c-.419-.1-.816-.193-1.194-.27s-.72-.154-1.027-.235a3.237,3.237,0,0,1-1.339-.62,1.4913,1.4913,0,0,1-.418-1.153,1.42,1.42,0,0,1,.7-1.3,3.2328,3.2328,0,0,1,1.724-.431,5.55,5.55,0,0,1,1.963.364,6.433,6.433,0,0,1,1.762,1h.111v-2.214a7.2475,7.2475,0,0,0-1.737-.64,8.5686,8.5686,0,0,0-2.056-.253,5.0253,5.0253,0,0,0-3.332,1.048,3.6,3.6,0,0,0-.615,4.771,3.7719,3.7719,0,0,0,2.045,1.26c.36.1.754.193,1.177.28s.772.161,1.036.224a3.3,3.3,0,0,1,1.418.631,1.4637,1.4637,0,0,1,.4,1.118,1.7061,1.7061,0,0,1-.171.861,1.74,1.74,0,0,1-.555.541,2.5113,2.5113,0,0,1-.836.294,5.1906,5.1906,0,0,1-1.055.116,4.5694,4.5694,0,0,1-1.311-.186,8.7416,8.7416,0,0,1-1.159-.43,6.1639,6.1639,0,0,1-.952-.53c-.238-.17-.445-.322-.621-.461h-.108v2.318a10.1921,10.1921,0,0,0,1.775.7,7.8521,7.8521,0,0,0,2.3.329,6.4546,6.4546,0,0,0,2.082-.287,4.6676,4.6676,0,0,0,1.49-.835,3.31,3.31,0,0,0,.919-1.217,3.6782,3.6782,0,0,0,.312-1.5,3.178,3.178,0,0,0-.686-2.157m-45.101,2.8691-3.365-9.462h-2.227l4.593,12.283h1.858l4.628-12.283h-2.157Zm-8.073-9.462a3.659,3.659,0,0,0-1.629.414,9.3424,9.3424,0,0,0-1.972,1.411v-1.825h-2.072v12.283H129.2v-8.721a5.41,5.41,0,0,1,1.56-1.078,4.0984,4.0984,0,0,1,1.657-.359c.241,0,.449,0,.62.014a2.3289,2.3289,0,0,1,.489.081h.11v-2.158c-.132-.022-.252-.039-.356-.05s-.266-.0161-.478-.0161m-24.628,3.4841c-.438-.133-.994-.278-1.66-.435s-1.233-.3-1.695-.427a3.19,3.19,0,0,1-1.6-.9,2.4,2.4,0,0,1-.551-1.662,2.2329,2.2329,0,0,1,.937-1.865,3.9492,3.9492,0,0,1,2.455-.71,6.3373,6.3373,0,0,1,2.567.534,7.28,7.28,0,0,1,2,1.252h.166V131.42a10.5494,10.5494,0,0,0-2.273-.782,11.8924,11.8924,0,0,0-2.606-.275,5.826,5.826,0,0,0-3.963,1.347,4.2541,4.2541,0,0,0-1.552,3.341,4.6759,4.6759,0,0,0,.281,1.687,3.8194,3.8194,0,0,0,.786,1.273,4.2787,4.2787,0,0,0,1.189.892,7.6492,7.6492,0,0,0,1.518.562q.9469.2421,1.573.386c.419.1.882.217,1.387.362a2.8812,2.8812,0,0,1,1.542.914,2.51,2.51,0,0,1,.485,1.6,2.4377,2.4377,0,0,1-.925,1.985,4.2338,4.2338,0,0,1-2.73.754,6.9561,6.9561,0,0,1-2.631-.554,7.8738,7.8738,0,0,1-2.444-1.56h-.154v2.722a14.9925,14.9925,0,0,0,2.35.9061,10.8023,10.8023,0,0,0,3.031.3679,6.9637,6.9637,0,0,0,2.494-.386,5.6915,5.6915,0,0,0,1.788-1.1,4.42,4.42,0,0,0,1.095-1.584,4.8626,4.8626,0,0,0,.392-1.895,4.1907,4.1907,0,0,0-.781-2.574,4.6837,4.6837,0,0,0-2.477-1.562m14.67-2.466a4.0167,4.0167,0,0,0-1.542-1.031,5.7144,5.7144,0,0,0-2.023-.332,5.2272,5.2272,0,0,0-4.111,1.776,6.932,6.932,0,0,0-1.576,4.773,6.44,6.44,0,0,0,1.623,4.7,6.0916,6.0916,0,0,0,4.559,1.653,7.2547,7.2547,0,0,0,1.236-.087c.325-.061.69-.143,1.093-.254a10.1716,10.1716,0,0,0,.969-.335c.36-.143.658-.264.9-.359v-2.25h-.121a5.8028,5.8028,0,0,1-.638.447,8.9708,8.9708,0,0,1-.946.489,6.3922,6.3922,0,0,1-1.182.394,5.7328,5.7328,0,0,1-1.3351.154,3.9146,3.9146,0,0,1-2.98-1.133,4.5706,4.5706,0,0,1-1.077-3.276H124.2v-1.121a7.646,7.646,0,0,0-.354-2.49,4.7625,4.7625,0,0,0-1.01-1.72m-7.149,3.749a4.5875,4.5875,0,0,1,.307-1.368,3.4214,3.4214,0,0,1,.7-1.072,3.3356,3.3356,0,0,1,1.049-.719,4.1275,4.1275,0,0,1,2.8-.007,2.33,2.33,0,0,1,.928.7,2.9665,2.9665,0,0,1,.507,1.022,5.6557,5.6557,0,0,1,.2,1.44Zm-29.142,7.516h2.074V129.921H86.554Zm100.079-24.233L176.98,94.226h-7.826l-9.651,28.588h7.191l1.777-5.8h9l1.777,5.8Zm-16.581-11.025,2.92-9.426,2.919,9.426Zm-41.655,5.56H116.214v-7.187h11.23v-5.467h-11.23v-5h12.183V94.226H109.065v28.588h19.331ZM102.76,122.81V94.226H95.5779v10.47H85.82V94.226h-7.181v28.588H85.82V110.159h9.758V122.81Zm-75.641,0L17.474,94.226H9.65L0,122.814H7.189l1.777-5.8h9l1.777,5.8Zm-16.58-11.025,2.92-9.426,2.92,9.426Zm38.5,5.56H37.598V94.226h-7.18v28.588H49.049Zm25.606-14.108a9.5758,9.5758,0,0,0-.882-4.267,7.2089,7.2089,0,0,0-2.494-2.868,10.2564,10.2564,0,0,0-3.248-1.43,17.7289,17.7289,0,0,0-4.267-.45H52.683V122.81h7.181v-9.365h3.755a13.9383,13.9383,0,0,0,2.767-.25,12.0982,12.0982,0,0,0,2.291-.69,9.5423,9.5423,0,0,0,1.926-1.075,12.3607,12.3607,0,0,0,1.6-1.379,7.9989,7.9989,0,0,0,1.821-3.012,11.4319,11.4319,0,0,0,.632-3.8m-7.653,2.242a3.8158,3.8158,0,0,1-.981,1.474,3.1633,3.1633,0,0,1-.983.621,5.2989,5.2989,0,0,1-1.209.373,10.5745,10.5745,0,0,1-1.563.134q-.9.0171-1.906.019h-.5v-8.536h1.013q1.579,0,2.507.068a5.9192,5.9192,0,0,1,1.934.507,3.0063,3.0063,0,0,1,1.371,1.2,3.7,3.7,0,0,1,.573,2.078,6.7245,6.7245,0,0,1-.257,2.067m74.105,7.965h3.1l4.854,9.365h8.768l-6.51-11.087c.167-.106.366-.178.525-.294a12.2314,12.2314,0,0,0,1.6-1.379,8.0172,8.0172,0,0,0,1.821-3.012,11.4319,11.4319,0,0,0,.632-3.8,9.5989,9.5989,0,0,0-.882-4.267,7.2,7.2,0,0,0-2.494-2.868,10.2317,10.2317,0,0,0-3.25-1.43,17.6919,17.6919,0,0,0-4.265-.45H133.925v28.588h7.182Zm0-13.88h1.011q1.578,0,2.506.068a5.9192,5.9192,0,0,1,1.934.507,3.0058,3.0058,0,0,1,1.371,1.2,3.7,3.7,0,0,1,.571,2.078,6.66,6.66,0,0,1-.256,2.067,3.7745,3.7745,0,0,1-.982,1.474,3.1287,3.1287,0,0,1-.981.621,5.3034,5.3034,0,0,1-1.211.373,10.56,10.56,0,0,1-1.562.134c-.6.012-1.233.019-1.907.019h-.494Z"/></g></g><g id="Group_26" data-name="Group 26"><g id="Group_25" data-name="Group 25"><path id="Path_2" data-name="Path 2" class="cls-2" d="M43.461,44.231c-4.682,2.934-7.254,7.248-5.749,9.641s6.515,1.955,11.2-.976,7.254-7.248,5.753-9.643-6.519-1.954-11.2.978m19.327,7.7c-5.279,3.126-7.986,8.32-6.047,11.6s7.8,3.4,13.077.274,7.987-8.318,6.047-11.6-7.792-3.4-13.077-.276m5.753-15.49c4.421-1.779,7.315-4.934,6.467-7.048s-5.12-2.384-9.543-.606-7.313,4.933-6.464,7.048,5.121,2.384,9.54.607m18.682,8.011c4.559-1.369,7.561-4.787,6.707-7.636s-5.24-4.05-9.8-2.681-7.567,4.786-6.714,7.634,5.246,4.05,9.8,2.683M84.396,24.684c3.858-.888,6.64-3.1,6.22-4.938s-3.894-2.613-7.747-1.725-6.642,3.1-6.217,4.939,3.889,2.61,7.745,1.724m36.78,4.057c-4.089,0-7.4,2.191-7.4,4.9s3.314,4.9,7.4,4.9,7.41-2.193,7.41-4.9-3.317-4.9-7.41-4.9m9.806-9.355c-3.546-.328-6.561,1.036-6.747,3.041s2.534,3.9,6.076,4.223,6.563-1.036,6.747-3.042-2.531-3.9-6.076-4.222m-12.056-2.125c0-1.866-2.826-3.378-6.313-3.378s-6.312,1.512-6.312,3.378,2.824,3.377,6.312,3.377,6.313-1.511,6.313-3.377m-21.1-1.352c3.347-.589,5.475-2.318,5.227-3.731s-3.447-2.325-7.19-1.522c-3.324.712-5.185,2.25-4.935,3.665s3.546,2.183,6.9,1.589m10.314-6.778c2.866-.077,5.152-1.1,5.114-2.3s-2.394-2.1-5.257-2.019-5.151,1.1-5.112,2.3,2.4,2.095,5.254,2.02m19.489,1.332c.057-1.388-2.313-2.61-5.276-2.725s-5.421.917-5.478,2.308,2.312,2.608,5.283,2.724,5.417-.918,5.471-2.307m11.249,1.739c-3.126-.528-5.883.237-6.147,1.71s2.053,3.1,5.18,3.628,5.882-.235,6.148-1.71-2.048-3.1-5.181-3.628m-21.5-8.715c2.734.071,4.97-.648,5-1.612s-2.153-1.8-4.883-1.872-4.972.648-5.006,1.61,2.152,1.8,4.884,1.874M129.986,6.75c2.872.181,5.276-.57,5.364-1.677s-2.176-2.154-5.049-2.336-5.264.57-5.353,1.679,2.172,2.153,5.038,2.335m14.507-.385c-2.912-.487-5.472.067-5.718,1.232s1.917,2.507,4.828,2.992,5.474-.064,5.716-1.232-1.915-2.506-4.827-2.992m-36.854,35.7c-4.738.84-8.054,4.468-7.409,8.1s5,5.9,9.739,5.052,8.055-4.467,7.407-8.1-5-5.894-9.738-5.051M100.36,22.439c-3.918.587-6.825,2.86-6.493,5.078s3.777,3.542,7.7,2.954,6.825-2.86,6.49-5.08-3.778-3.54-7.694-2.953M87.527,63.031c-5.223,3.06-7.206,8.907-4.43,13.064s9.258,5.049,14.484,1.993,7.2-8.908,4.426-13.067-9.256-5.048-14.48-1.991"/></g></g></g></g></svg>